<?xml version="1.0" encoding="UTF-8"?>
<svg xmlns="http://www.w3.org/2000/svg" xmlns:xlink="http://www.w3.org/1999/xlink" viewBox="0 0 200 200" width="200px" height="200px">
<g id="surface280302305">
<path style=" stroke:none;fill-rule:nonzero;fill:rgb(90.196079%,49.411765%,13.333334%);fill-opacity:1;" d="M 26 54 C 23.789062 54 22 55.789062 22 58 C 22 60.210938 23.789062 62 26 62 C 28.210938 62 30 60.210938 30 58 C 30 55.789062 28.210938 54 26 54 Z M 26 54 "/>
<path style=" stroke:none;fill-rule:nonzero;fill:rgb(18.039216%,80.000001%,44.313726%);fill-opacity:1;" d="M 154 24 C 152.894531 24 152 24.894531 152 26 C 152 27.105469 152.894531 28 154 28 C 155.105469 28 156 27.105469 156 26 C 156 24.894531 155.105469 24 154 24 Z M 154 24 "/>
<path style=" stroke:none;fill-rule:nonzero;fill:rgb(80.000001%,80.000001%,80.000001%);fill-opacity:1;" d="M 100 26 C 59.132812 26 26 59.132812 26 100 C 26 140.867188 59.132812 174 100 174 C 140.867188 174 174 140.867188 174 100 C 174 59.132812 140.867188 26 100 26 Z M 100 26 "/>
<path style=" stroke:none;fill-rule:nonzero;fill:rgb(18.039216%,80.000001%,44.313726%);fill-opacity:1;" d="M 166 22 C 161.582031 22 158 25.582031 158 30 C 158 34.417969 161.582031 38 166 38 C 170.417969 38 174 34.417969 174 30 C 174 25.582031 170.417969 22 166 22 Z M 166 22 "/>
<path style=" stroke:none;fill-rule:nonzero;fill:rgb(90.196079%,49.411765%,13.333334%);fill-opacity:1;" d="M 174 44 C 171.789062 44 170 45.789062 170 48 C 170 50.210938 171.789062 52 174 52 C 176.210938 52 178 50.210938 178 48 C 178 45.789062 176.210938 44 174 44 Z M 174 44 "/>
<path style=" stroke:none;fill-rule:nonzero;fill:rgb(18.039216%,80.000001%,44.313726%);fill-opacity:1;" d="M 162 148 C 159.789062 148 158 149.789062 158 152 C 158 154.210938 159.789062 156 162 156 C 164.210938 156 166 154.210938 166 152 C 166 149.789062 164.210938 148 162 148 Z M 30 118 C 25.582031 118 22 121.582031 22 126 C 22 130.417969 25.582031 134 30 134 C 34.417969 134 38 130.417969 38 126 C 38 121.582031 34.417969 118 30 118 Z M 30 118 "/>
<path style=" stroke:none;fill-rule:nonzero;fill:rgb(90.196079%,49.411765%,13.333334%);fill-opacity:1;" d="M 50 170 C 47.789062 170 46 171.789062 46 174 C 46 176.210938 47.789062 178 50 178 C 52.210938 178 54 176.210938 54 174 C 54 171.789062 52.210938 170 50 170 Z M 50 170 "/>
<path style=" stroke:none;fill-rule:nonzero;fill:rgb(100%,100%,100%);fill-opacity:1;" d="M 37 102 C 34.238281 102 32 104.238281 32 107 C 32 109.761719 34.238281 112 37 112 C 39.761719 112 42 109.761719 42 107 C 42 104.238281 39.761719 102 37 102 Z M 37 102 "/>
<path style=" stroke:none;fill-rule:nonzero;fill:rgb(18.039216%,80.000001%,44.313726%);fill-opacity:1;" d="M 42 132 C 40.894531 132 40 132.894531 40 134 C 40 135.105469 40.894531 136 42 136 C 43.105469 136 44 135.105469 44 134 C 44 132.894531 43.105469 132 42 132 Z M 42 132 "/>
<path style=" stroke:none;fill-rule:nonzero;fill:rgb(100%,100%,100%);fill-opacity:1;" d="M 160 66 C 158.894531 66 158 66.894531 158 68 C 158 69.105469 158.894531 70 160 70 C 161.105469 70 162 69.105469 162 68 C 162 66.894531 161.105469 66 160 66 Z M 160 66 "/>
<path style=" stroke:none;fill-rule:nonzero;fill:rgb(67.843139%,83.137256%,63.137257%);fill-opacity:1;" d="M 103 50 C 77 50 56 71 56 97 C 56 106 58.398438 114.199219 62.800781 121.398438 L 56 142.199219 L 76.199219 135.601562 C 83.800781 141 93 144 103 144 C 129 144 150 123 150 97 C 150 71 129 50 103 50 Z M 103 50 "/>
<path style=" stroke:none;fill-rule:nonzero;fill:rgb(27.843139%,16.862746%,16.078432%);fill-opacity:1;" d="M 103 145.398438 C 93.199219 145.398438 84 142.601562 76 137.199219 L 56.601562 143.601562 C 56 143.800781 55.601562 143.601562 55.199219 143.199219 C 54.800781 142.800781 54.601562 142.199219 54.800781 141.800781 L 61.398438 121.601562 C 57 114.199219 54.800781 105.800781 54.800781 97 C 54.800781 70.398438 76.601562 48.601562 103.199219 48.601562 C 129.800781 48.601562 151.601562 70.398438 151.601562 97 C 151.601562 123.601562 129.601562 145.398438 103 145.398438 Z M 76.199219 134.199219 C 76.398438 134.199219 76.800781 134.199219 77 134.398438 C 84.601562 139.800781 93.601562 142.601562 103 142.601562 C 128.199219 142.601562 148.601562 122.199219 148.601562 97 C 148.601562 71.800781 128.199219 51.398438 103 51.398438 C 77.800781 51.398438 57.398438 71.800781 57.398438 97 C 57.398438 105.398438 59.601562 113.601562 64 120.601562 C 64.199219 121 64.199219 121.398438 64.199219 121.800781 L 58.199219 140 L 75.601562 134.199219 C 75.800781 134.199219 76 134.199219 76.199219 134.199219 Z M 76.199219 134.199219 "/>
<path style=" stroke:none;fill-rule:nonzero;fill:rgb(35.294119%,72.941178%,61.960787%);fill-opacity:1;" d="M 133.199219 74.199219 C 126.199219 65.199219 115.398438 59.199219 103 59.199219 C 82.199219 59.199219 65.199219 76.199219 65.199219 97 C 65.199219 104.800781 67.601562 112.199219 71.800781 118.199219 L 67.800781 130.601562 L 79.800781 126.800781 C 86.199219 131.800781 94.398438 135 103.199219 135 C 124 135 141 118 141 97.199219 C 141 95 140.800781 93 140.398438 90.800781 "/>
<path style=" stroke:none;fill-rule:nonzero;fill:rgb(27.843139%,16.862746%,16.078432%);fill-opacity:1;" d="M 103 135.800781 C 94.398438 135.800781 86.199219 133 79.398438 127.800781 L 68 131.601562 C 67.601562 131.800781 67.199219 131.601562 67 131.398438 C 66.800781 131.199219 66.601562 130.800781 66.800781 130.398438 L 70.601562 118.398438 C 66.398438 112 64.199219 104.601562 64.199219 97 C 64.199219 75.601562 81.601562 58.199219 103 58.199219 C 115.199219 58.199219 126.601562 63.800781 134 73.601562 C 134.398438 74 134.199219 74.601562 133.800781 75 C 133.398438 75.398438 132.800781 75.199219 132.398438 74.800781 C 125.398438 65.601562 114.601562 60.199219 103 60.199219 C 82.800781 60.199219 66.199219 76.800781 66.199219 97 C 66.199219 104.398438 68.398438 111.601562 72.601562 117.601562 C 72.800781 117.800781 72.800781 118.199219 72.800781 118.398438 L 69.398438 129 L 79.398438 125.800781 C 79.800781 125.601562 80 125.800781 80.398438 126 C 87 131.199219 94.800781 134 103.199219 134 C 123.398438 134 140 117.398438 140 97.199219 C 140 95.199219 139.800781 93 139.398438 91 C 139.398438 90.398438 139.601562 90 140.199219 89.800781 C 140.800781 89.800781 141.199219 90 141.398438 90.601562 C 141.800781 92.800781 142 95 142 97 C 141.800781 118.398438 124.398438 135.800781 103 135.800781 Z M 103 135.800781 "/>
<path style=" stroke:none;fill-rule:nonzero;fill:rgb(35.294119%,72.941178%,61.960787%);fill-opacity:1;" d="M 139 85.199219 C 138.199219 83 137.199219 80.800781 136.199219 78.601562 "/>
<path style=" stroke:none;fill-rule:nonzero;fill:rgb(27.843139%,16.862746%,16.078432%);fill-opacity:1;" d="M 139 86.199219 C 138.601562 86.199219 138.199219 86 138 85.601562 C 137.199219 83.398438 136.398438 81.199219 135.199219 79.199219 C 135 78.800781 135.199219 78.199219 135.601562 77.800781 C 136 77.601562 136.601562 77.800781 137 78.199219 C 138.199219 80.398438 139.199219 82.601562 140 84.800781 C 140.199219 85.398438 139.800781 85.800781 139.398438 86 C 139.199219 86.199219 139 86.199219 139 86.199219 Z M 139 86.199219 "/>
<path style=" stroke:none;fill-rule:nonzero;fill:rgb(99.215686%,98.823529%,93.333334%);fill-opacity:1;" d="M 118.199219 117.398438 C 115.398438 117.398438 111.398438 116.398438 105.601562 114 C 98 111 90.398438 104.800781 84.199219 96.398438 L 83.800781 96 C 82 93.601562 78.800781 88.800781 78.800781 84 C 78.601562 80.398438 80.199219 76.800781 83.199219 74.398438 C 84.199219 73.601562 85.601562 73.199219 86.800781 73.199219 L 88.601562 73.199219 C 88.601562 73.199219 88.800781 73.199219 89 73.199219 C 89.199219 73.199219 89.199219 73.199219 89.398438 73.199219 C 89.601562 73.199219 89.800781 73.398438 90 73.601562 C 90.398438 74 90.601562 74.398438 90.800781 75 L 92.398438 78.398438 C 93.601562 81 94.601562 83.398438 94.800781 83.601562 C 95 83.800781 95.398438 84.601562 95 85.398438 C 94.601562 86 94.199219 86.601562 93.800781 87 C 93.601562 87.398438 93.398438 87.601562 93.199219 87.800781 L 92.601562 88 C 92.398438 88.199219 91.800781 88.800781 91.398438 89.199219 C 90.398438 90.199219 90.199219 91.398438 90.800781 92.398438 C 92.800781 95.601562 95.199219 98.398438 98.199219 100.800781 C 101.199219 103.398438 104.601562 105.398438 108.398438 106.800781 L 108.800781 107 C 109.199219 107.199219 109.800781 107.398438 110.398438 107.398438 C 111.398438 107.398438 112.199219 107 112.800781 106.398438 C 113.800781 105.199219 114.800781 104 115.800781 102.800781 L 116.398438 102 C 116.601562 101.800781 117 101.199219 117.800781 101.199219 C 118 101.199219 118.398438 101.199219 118.601562 101.398438 C 119.601562 101.800781 125.199219 104.199219 127.199219 105.199219 L 128 105.601562 L 129 106 C 129.398438 106.199219 129.601562 106.398438 129.601562 106.800781 C 129.601562 108.601562 129.398438 110.199219 128.800781 111.800781 C 127.800781 114.199219 123.800781 116.601562 120.601562 117.199219 C 120 117.398438 119.199219 117.398438 118.199219 117.398438 Z M 118.199219 117.398438 "/>
<path style=" stroke:none;fill-rule:nonzero;fill:rgb(27.843139%,16.862746%,16.078432%);fill-opacity:1;" d="M 88.800781 74.199219 C 89 74.199219 89 74.199219 89.199219 74.199219 C 89.398438 74.398438 89.601562 74.800781 89.800781 75.199219 L 91 77.800781 C 92.601562 81.199219 93.601562 83.800781 93.800781 84.199219 C 94 84.601562 94 84.800781 94 85 C 93.800781 85.601562 93.398438 86 93 86.398438 L 92.800781 86.601562 C 92.601562 86.800781 92.199219 87.199219 92 87.398438 C 91.800781 87.601562 91.199219 88.199219 90.800781 88.601562 C 89.398438 89.800781 89.199219 91.601562 90.199219 93 C 92.199219 96.199219 94.800781 99.199219 97.800781 101.601562 C 100.800781 104.199219 104.398438 106.199219 108.199219 107.601562 L 108.601562 107.800781 C 109.199219 108 109.800781 108.199219 110.398438 108.199219 C 111.601562 108.199219 112.800781 107.800781 113.601562 107 C 114.601562 105.800781 115.800781 104.601562 116.601562 103.398438 L 117.199219 102.601562 C 117.398438 102.398438 117.601562 102.199219 117.800781 102.199219 C 118 102.199219 118.199219 102.199219 118.398438 102.398438 C 119.398438 102.800781 124.800781 105.199219 127 106.199219 L 127.800781 106.601562 L 128.800781 107 C 128.800781 108.601562 128.601562 110.199219 128 111.601562 C 127.199219 113.800781 123.601562 115.800781 120.601562 116.398438 C 120 116.601562 119.398438 116.601562 118.398438 116.601562 C 116.398438 116.601562 113 116 106 113.398438 C 98.601562 110.601562 91 104.398438 85 96.199219 L 84.601562 95.800781 C 82.800781 93.398438 79.800781 89 79.800781 84.398438 C 79.601562 81 81.199219 77.800781 83.800781 75.398438 C 84.601562 74.800781 85.800781 74.398438 86.800781 74.398438 L 87 74.398438 C 87.601562 74.398438 88 74.398438 88.398438 74.398438 C 88.398438 74.199219 88.601562 74.199219 88.800781 74.199219 M 88.800781 72.199219 C 88.601562 72.199219 88.601562 72.199219 88.398438 72.199219 L 87.199219 72.199219 C 87 72.199219 87 72.199219 86.800781 72.199219 C 85.199219 72.199219 83.800781 72.800781 82.601562 73.601562 C 79.398438 76.199219 77.800781 80.199219 77.800781 84 C 77.800781 89 81.199219 94 83.199219 96.601562 L 83.601562 97 C 89.800781 105.398438 97.601562 111.800781 105.398438 114.800781 C 111.398438 117.199219 115.601562 118.199219 118.398438 118.199219 C 119.601562 118.199219 120.398438 118 121 118 C 124.398438 117.398438 128.800781 115 129.800781 112 C 130.398438 110.398438 130.800781 108.398438 130.800781 106.601562 C 130.800781 105.800781 130.199219 105.199219 129.601562 104.800781 L 128.601562 104.398438 L 127.800781 104 C 126 103.199219 120.199219 100.398438 119 100 C 118.800781 100 118.398438 99.800781 117.800781 99.800781 C 116.398438 99.800781 115.800781 100.800781 115.601562 101 L 115 101.800781 C 114 103 113.199219 104.199219 112.199219 105.199219 C 111.800781 105.601562 111.199219 105.800781 110.398438 105.800781 C 110 105.800781 109.601562 105.800781 109.398438 105.601562 L 109 105.398438 C 105.398438 104 102 102.199219 99.199219 99.601562 C 96.398438 97.199219 94 94.398438 92 91.398438 C 91.601562 90.800781 91.800781 90 92.199219 89.601562 L 92.398438 89.398438 C 92.800781 89 93.199219 88.601562 93.398438 88.199219 L 93.601562 88 C 93.800781 87.800781 94 87.601562 94.199219 87.398438 C 94.800781 86.800781 95.199219 86.199219 95.601562 85.601562 C 96 85 96.199219 84 95.398438 82.800781 C 95.199219 82.398438 94.199219 80.199219 93 77.601562 L 92.601562 76.601562 L 91.398438 74 C 91.199219 73.398438 90.800781 72.800781 90.398438 72.398438 C 90 72 89.601562 71.800781 89.199219 71.800781 C 89 72.199219 88.800781 72.199219 88.800781 72.199219 Z M 88.800781 72.199219 "/>
</g>
</svg>
